<svg width="1920" height="174" viewBox="0 0 1920 174" fill="none" xmlns="http://www.w3.org/2000/svg">
<g clip-path="url(#clip0)">
<path opacity="0.1" d="M-2.68903 44C119.299 44.9275 196.185 71.1879 389.795 103.912C518.869 125.728 728.208 133.335 1017.82 126.733C628.351 200.254 288.183 197.668 -2.68903 118.973" fill="white"/>
<path opacity="0.1" d="M131.765 148.708C370.304 116.235 570.283 96.5247 731.702 89.5787C893.122 82.6328 1087.09 85.7979 1313.61 99.0742C1249.17 100.123 1086.79 118.846 826.487 155.243C566.18 191.641 334.606 189.463 131.765 148.708Z" fill="white"/>
<path opacity="0.2" d="M1403.7 95.6521C1517.76 73.3288 1717.09 61.6079 1932.1 84.1657V164C1706.45 121.944 1530.32 99.1609 1403.7 95.6521Z" fill="white"/>
<path d="M-4.76367 110.035C71.3762 129.198 126.666 141.809 161.105 147.865C238.594 161.495 309.64 166.29 360.381 169.459C413.25 172.759 527.913 171.801 614.487 167.663C649.089 166.01 692.07 162.372 743.43 156.752C795.626 150.596 831.425 146.008 850.822 142.991C887.278 137.324 952.606 125.503 972.914 122.128C1043.99 110.317 1095.58 98.532 1145.98 91.904C1235.21 80.169 1279.56 78.522 1354.2 76.432C1420.78 77.477 1470.1 79.129 1502.17 81.387C1556.58 85.219 1619.66 93.821 1655.66 98.304C1723.5 106.748 1815.6 123.432 1931.95 148.354L1932.36 180.352L-3.8709 180.031L-4.76367 110.035Z" fill="white"/>
</g>
<defs>
<clipPath id="clip0">
<rect width="1920" height="174" fill="white"/>
</clipPath>
</defs>
</svg>
