<svg width="1132" height="1018" viewBox="0 0 1132 1018" fill="none" xmlns="http://www.w3.org/2000/svg">
<path fill-rule="evenodd" clip-rule="evenodd" d="M105.292 748.499C110.779 658.338 38.1861 560.305 86.2306 470.785C125.684 397.262 291.334 400.104 393.392 371.45C474.492 348.687 523.403 303.121 570.04 259.386C611.941 220.124 650.058 179.402 693.942 140.932C722.347 116.064 771.695 66.8769 828.334 69.0721C882.556 71.1684 928.643 114.175 957.99 139.714C996.253 173.004 1029.68 208.087 1066.72 241.806C1129.12 298.68 1206.16 342.484 1295.05 384.826C1396.22 433.005 1499.25 479.832 1604.13 525.307C1681.35 558.877 1759.13 592.257 1832.99 628.535C1879.33 651.298 1982.18 694.886 1979.39 731.97C1978.06 749.666 1948.01 767.682 1927.67 780.761C1893.25 802.899 1854.49 822.738 1815.66 842.098C1743.34 878.161 1668.26 912.255 1593.91 946.852C1497.42 991.753 1405.13 1036.06 1319.17 1088.34C1230.29 1142.46 1144.97 1198.73 1058.1 1254.07C999.263 1291.56 940.044 1334.04 858.148 1354.52C755.58 1380.1 676.545 1342.77 575.63 1336.81C488.822 1331.67 505.75 1212.96 497.642 1179.24C489.531 1145.12 467.883 1112.57 461.394 1078.46C453.307 1035.88 456.944 992.971 457.79 950.431C458.85 898.399 461.811 848.972 369.929 824.026C317.635 809.847 260.198 804.297 205.638 794.519C170.293 788.176 103.557 776.984 105.292 748.499Z" stroke="#FF8062" stroke-width="5"/>
<path fill-rule="evenodd" clip-rule="evenodd" d="M149.624 734.436C147.194 658.485 101.97 558.942 159.693 483.872C209.01 419.719 345.608 418.605 440.165 388.703C518.222 364.043 556.006 318.713 597.848 274.443C631.417 238.93 664.101 203.009 701.656 168.91C729.333 143.782 771.972 101.132 825.127 98.555C872.914 96.2373 920.198 138.587 944.999 160.174C981.179 191.686 1011.52 225.414 1043.02 258.533C1098.36 316.71 1155.64 369.441 1240.17 414.605C1325.08 459.963 1419.21 495.573 1514.26 532.474C1588.63 561.346 1662.53 590.912 1732.74 623.379C1785.04 647.553 1860.53 678.967 1881.97 718.103C1898.96 749.063 1795.06 793.135 1764.17 809.01C1700.58 841.645 1633.58 871.878 1566.49 901.897C1484.7 938.475 1400.86 969.782 1327.7 1012.62C1196.85 1089.21 1084.45 1187.38 920.078 1240.59C820.941 1272.69 713.45 1276.35 607.358 1264.86C565.347 1260.31 558.332 1224.49 554.83 1203.63C549.004 1168.97 550.966 1134.16 547.198 1099.48C543.665 1067.01 532.215 1035.72 523.599 1003.6C514.884 971.057 514.539 938.189 508.883 905.595C505.385 885.361 502.234 861.865 480.639 844.559C458.295 826.643 419.626 817.515 385.759 810.333C322.15 796.939 151.348 788.036 149.624 734.436Z" stroke="#5BE7C3" stroke-width="5"/>
<path fill-rule="evenodd" clip-rule="evenodd" d="M206.358 706.412C197.172 636.248 183.365 548.727 251.397 488.314C307.006 438.916 416.758 433.667 497.445 403.94C564.556 379.219 592.938 335.569 628.706 295.524C658.054 262.679 687.552 229.691 722.333 198.814C748.711 175.398 782.851 143.559 831.643 137.58C873.359 132.472 916.826 168.094 938.137 185.806C974.42 215.991 1003.25 249.157 1031.89 281.897C1078.75 335.468 1121.21 392.271 1190.64 437.578C1258.11 481.549 1340.37 509.851 1423.95 541.18C1487.97 565.182 1551.51 589.946 1611.38 617.658C1657.35 638.924 1714.41 664.268 1736.48 696.644C1755.58 724.568 1697.69 753.17 1668.5 770.511C1620.29 799.127 1567.32 824.896 1515.04 850.819C1458.62 878.784 1396.64 904.031 1341.89 932.853C1226.75 993.51 1132.94 1062.53 993.781 1106.18C903.655 1134.46 783.658 1158.04 681.057 1146.93C607.272 1138.93 620.733 1042.1 616.356 1010.68C609.136 959.301 591.238 904.749 559.455 856.032C532.153 814.283 459.954 797.881 393.33 785.17C351.594 777.196 307.6 771.704 267.521 760.728C221.127 748.012 210.207 735.822 206.358 706.412Z" stroke="#5ACEF2" stroke-width="5"/>
<path fill-rule="evenodd" clip-rule="evenodd" d="M260.701 676.488C256.758 617.455 264.926 548.357 328.456 500.994C384.129 459.509 477.305 452.93 545.929 421.62C599.486 397.194 623.503 353.866 654.196 319.344C691.709 277.133 746.011 198.343 832.281 186.45C912.532 175.396 986.326 278.447 1012.29 309.395C1053.39 358.38 1086.7 411.448 1137.74 457.407C1181.7 496.976 1243.17 520.905 1308.38 546.574C1391.53 579.35 1518.58 619.79 1559.53 676.97C1590.06 719.579 1473.74 773.98 1433.36 800.097C1391.12 827.377 1358.18 860.661 1314.77 886.832C1246.27 928.129 1138.49 958.469 1049.71 981.26C963.394 1003.43 851.759 1027.08 756.687 1020.05C694.201 1015.43 687.344 957.63 676.459 928.978C660.835 888.238 638.541 851.273 586.285 821.261C533.095 790.71 468.685 774.138 400.773 758.997C365.91 751.266 325.956 744.53 295.342 731.115C261.5 716.489 262.226 699.18 260.701 676.488Z" stroke="#F1B170" stroke-width="5"/>
<path fill-rule="evenodd" clip-rule="evenodd" d="M327.225 645.844C332.203 595.279 356.506 542.408 417.878 506.586C468.995 476.748 545.468 470.058 594.588 439.382C633.494 415.096 655.379 379.193 682.571 349.996C715.833 314.213 763.968 251.152 839.599 242.279C913.411 233.651 971.341 309.246 996.693 339.293C1033.82 383.348 1062.94 429.48 1100.44 473.44C1129.82 507.927 1167.41 531.186 1218.09 555.169C1277.57 583.337 1361.2 615.521 1390.52 658.301C1411.65 689.269 1349.97 733.475 1326.78 758.445C1311.24 775.218 1296.85 792.332 1288.14 810.961C1281.34 825.468 1279.59 839.145 1262.58 850.984C1219.77 880.761 1131.75 880.086 1071.34 887.341C991.107 896.965 905.889 908.232 822.955 906.695C771.979 905.782 748.501 876.625 721.225 855.519C688.996 830.569 641.947 811.304 601.112 791.563C547.225 765.473 487.632 747.802 425.971 729.671C398.158 721.489 365.377 713.158 344.537 698.799C322.767 683.902 325.436 664.094 327.225 645.844Z" stroke="#FF8062" stroke-width="5"/>
<path fill-rule="evenodd" clip-rule="evenodd" d="M395.629 619.829C409.414 577.931 444.266 539.085 499.726 511.996C542.243 491.194 597.15 481.195 632.086 455.309C664.64 431.178 688.33 403.002 715.773 376.794C744.813 349.088 788.437 302.508 850.171 297.946C916.702 293.036 963.023 345.02 988.67 373.829C1021.07 410.235 1044.72 448.786 1073.26 486.172C1094.79 514.051 1123.1 540.025 1157.25 563.23C1193.05 587.68 1242.39 611.931 1258.78 643.736C1273.27 671.905 1238.74 703.105 1230.72 730.41C1222.14 759.584 1229.86 791.153 1194.53 814.656C1121.67 863.126 951.251 843.963 853.237 839.665C756.523 835.473 681.674 799.207 606.183 764.469C556.317 741.533 504.041 721.554 452.751 699.916C400.465 677.841 383.499 656.701 395.629 619.829Z" stroke="#5ACEF2" stroke-width="5"/>
<path fill-rule="evenodd" clip-rule="evenodd" d="M457.212 598.629C492.393 538.641 588.15 511.019 658.654 468.114C716.342 432.988 764.05 356.276 856.451 350.89C961.357 344.78 1014.28 452.847 1046.82 495.216C1082.93 542.207 1151.07 582.575 1176.55 631.614C1189.95 657.354 1174.5 679.826 1164 704.233C1152.48 731.033 1143.17 758.571 1109.8 778.81C1044.11 818.637 923.317 811.654 836.199 808.031C746.016 804.285 668.954 770.24 599.803 736.69C526.457 701.155 421.171 660.149 457.212 598.629Z" stroke="#5ACEF2" stroke-width="5"/>
<path fill-rule="evenodd" clip-rule="evenodd" d="M510.064 585.186C547.358 543.133 620.728 511.326 680.681 480.785C730.718 455.326 786.874 401.612 859.736 401.591C945.374 401.551 991.683 464.788 1021.94 503.665C1051.73 541.87 1095.88 582.913 1110.63 623.851C1126.01 666.499 1070.31 719.708 1019.31 746.463C962.433 776.297 873.049 783.539 797.388 778.038C718.165 772.318 647.763 741.167 590.161 709.709C528.579 676.08 466.701 634 510.064 585.186Z" stroke="#FF8062" stroke-width="5"/>
<path fill-rule="evenodd" clip-rule="evenodd" d="M556.766 579.758C591.974 544.968 650.134 517.108 703.679 492.349C745.001 473.234 806.398 440.24 863.376 442.501C926.059 444.984 976.422 478.314 998.553 510.847C1020.37 542.934 1042.81 582.892 1043.5 616.808C1044.99 690.665 875.364 763.924 754.044 750.488C639.018 737.748 486.572 649.071 556.766 579.758Z" stroke="#5ACEF2" stroke-width="5"/>
<path fill-rule="evenodd" clip-rule="evenodd" d="M598.851 577.463C647.256 532.404 760.617 470.618 860.167 474.509C974.432 478.982 996.414 555.93 976.713 609.724C956.677 664.63 817.991 738.036 714.059 721.332C612.622 705.031 541.482 630.904 598.851 577.463Z" stroke="#5BE7C3" stroke-width="5"/>
<path fill-rule="evenodd" clip-rule="evenodd" d="M644.427 572.719C685.449 535.14 769.885 490.038 853.515 493.157C953.162 496.886 945.678 560.218 919.627 598.452C892.543 638.148 783.032 702.448 696.894 686.575C613.138 671.097 605.115 608.737 644.427 572.719Z" stroke="#FF8062" stroke-width="5"/>
<path fill-rule="evenodd" clip-rule="evenodd" d="M684.786 570.01C711.837 542.986 776.431 510.513 834.924 512.595C906.418 515.164 888.082 564.863 867.489 588.201C843.008 615.973 765.085 662.272 704.15 650.7C644.156 639.307 662.471 592.275 684.786 570.01Z" stroke="#5ACEF2" stroke-width="5"/>
</svg>
